<svg width="55" height="55" viewBox="0 0 55 55" fill="none" xmlns="http://www.w3.org/2000/svg">
<g clip-path="url(#clip0_150_2986)">
<path d="M13.4011 18.1633C14.4455 17.4333 16.02 17.5733 16.9578 18.3478L15.8822 16.7844C15.0167 15.55 15.3267 14.2144 16.5622 13.3478C17.7978 12.4844 21.2989 14.8056 21.2989 14.8056C20.4256 13.5589 20.5889 11.9789 21.8356 11.1044C22.4349 10.6856 23.176 10.5219 23.896 10.6492C24.6161 10.7765 25.2561 11.1844 25.6756 11.7833L37.2533 28.1389L35.7778 42.4444L23.4633 37.9533L12.7222 22.0278C12.5128 21.7296 12.3642 21.393 12.2849 21.0373C12.2057 20.6816 12.1974 20.3137 12.2604 19.9548C12.3235 19.5959 12.4567 19.2529 12.6524 18.9455C12.8481 18.6381 13.1026 18.3723 13.4011 18.1633Z" fill="#EF9645"/>
<path d="M10.9944 27.2622C10.9944 27.2622 9.73667 25.4289 11.5711 24.1722C13.4033 22.9156 14.66 24.7478 14.66 24.7478L20.4944 33.2567C20.6956 32.9211 20.9156 32.59 21.1611 32.2633L13.0633 20.4556C13.0633 20.4556 11.8067 18.6233 13.64 17.3667C15.4722 16.11 16.7289 17.9422 16.7289 17.9422L24.3456 29.05C24.6289 28.8189 24.9189 28.5867 25.2178 28.3589L16.3878 15.48C16.3878 15.48 15.1311 13.6478 16.9644 12.3911C18.7967 11.1344 20.0533 12.9667 20.0533 12.9667L28.8833 25.8433C29.2078 25.6444 29.5289 25.4722 29.8511 25.29L21.5978 13.2544C21.5978 13.2544 20.3411 11.4222 22.1733 10.1656C24.0056 8.90889 25.2622 10.7411 25.2622 10.7411L33.9889 23.4678L35.3156 25.4033C29.8178 29.1744 29.2944 36.2689 32.4356 40.85C33.0633 41.7667 33.98 41.1389 33.98 41.1389C30.21 35.64 31.3611 29.4611 36.86 25.6911L35.2389 17.5778C35.2389 17.5778 34.6333 15.44 36.77 14.8333C38.9078 14.2278 39.5144 16.3656 39.5144 16.3656L41.3867 21.9256C42.1289 24.13 42.9189 26.3267 43.9644 28.4044C46.9167 34.2711 45.1533 41.5622 39.5867 45.3811C33.5144 49.5444 25.2133 47.9967 21.0489 41.9256L10.9944 27.2622Z" fill="#FFDC5D"/>
<path d="M21.3333 43.6022C16.8889 43.6022 12.3978 39.1111 12.3978 34.6667C12.3978 34.0522 11.9478 33.5556 11.3333 33.5556C10.7189 33.5556 10.1756 34.0522 10.1756 34.6667C10.1756 41.3333 14.6667 45.8244 21.3333 45.8244C21.9478 45.8244 22.4445 45.2811 22.4445 44.6667C22.4445 44.0522 21.9478 43.6022 21.3333 43.6022Z" fill="#5DADEC"/>
<path d="M15.7778 45.7778C12.4444 45.7778 10.2222 43.5556 10.2222 40.2222C10.2222 39.9275 10.1052 39.6449 9.89679 39.4365C9.68841 39.2282 9.4058 39.1111 9.11111 39.1111C8.81643 39.1111 8.53381 39.2282 8.32544 39.4365C8.11706 39.6449 8 39.9275 8 40.2222C8 44.6667 11.3333 48 15.7778 48C16.0725 48 16.3551 47.8829 16.5635 47.6746C16.7718 47.4662 16.8889 47.1836 16.8889 46.8889C16.8889 46.5942 16.7718 46.3116 16.5635 46.1032C16.3551 45.8948 16.0725 45.7778 15.7778 45.7778ZM34.6667 10.2222C34.372 10.2222 34.0894 10.3393 33.881 10.5477C33.6726 10.756 33.5556 11.0386 33.5556 11.3333C33.5556 11.628 33.6726 11.9106 33.881 12.119C34.0894 12.3274 34.372 12.4444 34.6667 12.4444C39.1111 12.4444 43.5556 16.4322 43.5556 21.3333C43.5556 21.628 43.6726 21.9106 43.881 22.119C44.0894 22.3274 44.372 22.4444 44.6667 22.4444C44.9614 22.4444 45.244 22.3274 45.4523 22.119C45.6607 21.9106 45.7778 21.628 45.7778 21.3333C45.7778 15.2067 41.3333 10.2222 34.6667 10.2222Z" fill="#5DADEC"/>
<path d="M40.2222 8.04667C39.6089 8.04667 39.1111 8.49778 39.1111 9.11111C39.1111 9.72444 39.6089 10.2689 40.2222 10.2689C43.5556 10.2689 45.7311 12.7411 45.7311 15.7778C45.7311 16.3911 46.2744 16.8889 46.8889 16.8889C47.5033 16.8889 47.9533 16.3911 47.9533 15.7778C47.9533 11.5144 44.6667 8.04667 40.2222 8.04667Z" fill="#5DADEC"/>
</g>
<defs>
<clipPath id="clip0_150_2986">
<rect width="40" height="40" fill="white" transform="translate(8 8)"/>
</clipPath>
</defs>
</svg>
