<svg width="100" height="88" viewBox="0 0 100 88" fill="none" xmlns="http://www.w3.org/2000/svg">
<path d="M37.5 28.125C37.5 30.6114 36.5123 32.996 34.7541 34.7541C32.996 36.5123 30.6114 37.5 28.125 37.5C25.6386 37.5 23.254 36.5123 21.4959 34.7541C19.7377 32.996 18.75 30.6114 18.75 28.125C18.75 25.6386 19.7377 23.254 21.4959 21.4959C23.254 19.7377 25.6386 18.75 28.125 18.75C30.6114 18.75 32.996 19.7377 34.7541 21.4959C36.5123 23.254 37.5 25.6386 37.5 28.125V28.125Z" fill="#BBBBBB"/>
<path d="M12.5 0C9.18479 0 6.00537 1.31696 3.66117 3.66117C1.31696 6.00537 0 9.18479 0 12.5V75C0 78.3152 1.31696 81.4946 3.66117 83.8388C6.00537 86.183 9.18479 87.5 12.5 87.5H87.5C90.8152 87.5 93.9946 86.183 96.3388 83.8388C98.683 81.4946 100 78.3152 100 75V12.5C100 9.18479 98.683 6.00537 96.3388 3.66117C93.9946 1.31696 90.8152 0 87.5 0H12.5V0ZM87.5 6.25C89.1576 6.25 90.7473 6.90848 91.9194 8.08058C93.0915 9.25268 93.75 10.8424 93.75 12.5V53.125L70.1438 40.9562C69.5576 40.6626 68.894 40.5608 68.2469 40.6651C67.5997 40.7694 67.0017 41.0746 66.5375 41.5375L43.35 64.725L26.725 53.65C26.1247 53.2504 25.4048 53.0706 24.6871 53.1413C23.9695 53.2119 23.2983 53.5285 22.7875 54.0375L6.25 68.75V12.5C6.25 10.8424 6.90848 9.25268 8.08058 8.08058C9.25269 6.90848 10.8424 6.25 12.5 6.25H87.5Z" fill="#BBBBBB"/>
</svg>
