<svg width="1098" height="698" viewBox="0 0 1098 698" fill="none" xmlns="http://www.w3.org/2000/svg">
<path d="M423 296L249 648L63 258H183L249 392L359 138C501.4 -62 699.667 -1.33332 781 54V190C574.6 39.6 456.333 198 423 296Z" fill="#222222"/>
<path fill-rule="evenodd" clip-rule="evenodd" d="M851.363 111.997L671.749 461.166C670.482 464.705 669.101 468.323 667.607 472H769V541.03L847.264 367.964L911.11 503.004L1031.09 504.926L851.363 111.997ZM310 697.459V692.406L309.92 697.403C309.947 697.422 309.973 697.44 310 697.459Z" fill="#222222"/>
<path d="M523.67 263.612L699.67 353.612L634.738 444.5L439.357 335.062L523.67 263.612Z" fill="#D1A96B"/>
<path d="M453.878 491.819L546.238 545L490.985 622.903L388 566.035L453.878 491.819Z" fill="#D1A96B"/>
<path fill-rule="evenodd" clip-rule="evenodd" d="M485.748 620.115C515.986 637.716 552.489 648 591.795 648C696.177 648 780.795 575.47 780.795 486C780.795 430.899 748.701 382.223 699.662 352.958L628.988 441.222C646.177 452.748 657.238 470.759 657.238 491C657.238 525.794 624.554 554 584.238 554C570.262 554 557.204 550.611 546.106 544.733L485.748 620.115Z" fill="#D1A96B"/>
<path fill-rule="evenodd" clip-rule="evenodd" d="M1056.46 559L1097.59 648.928L977.609 647.007L936 559H1056.46Z" fill="#D1A96B"/>
<path fill-rule="evenodd" clip-rule="evenodd" d="M120.459 112L161.594 201.928L41.6091 200.007L0 112H120.459Z" fill="#D1A96B"/>
</svg>