<svg width="24" height="24" viewBox="0 0 24 24" fill="none" xmlns="http://www.w3.org/2000/svg">
<g clip-path="url(#clip0_6_63)">
<path d="M16.2714 8.47649L13.6209 9.34195L11.315 10.3596L10.6699 10.53C10.5057 10.6862 10.3334 10.8445 10.1471 11.0048C9.94273 11.1811 9.75241 11.3414 9.60614 11.4575C9.44388 11.5858 9.20348 11.8261 9.08128 11.9784C8.89897 12.2068 8.75473 12.4492 8.69262 12.6355C8.58243 12.9721 8.63654 13.3126 8.84889 13.6272C9.12135 14.0278 9.66427 14.4365 10.2973 14.715C10.6199 14.8572 11.1628 15.0395 11.5715 15.1417C12.2506 15.314 13.5648 15.5003 14.288 15.5284C14.4342 15.5344 14.6306 15.5344 14.6386 15.5284C14.6546 15.5183 14.7668 15.304 14.897 15.0376C15.3418 14.13 15.6623 13.2786 15.8366 12.5514C15.9408 12.1106 16.0229 11.5237 16.077 10.8285C16.091 10.6342 16.097 9.98308 16.085 9.76269C16.0669 9.40209 16.0349 9.10962 15.9848 8.82313C15.9768 8.78105 15.9748 8.74298 15.9788 8.74099C15.9868 8.73498 16.0109 8.72697 16.3374 8.63279L16.2713 8.47655V8.4765H16.2714V8.47649ZM15.6663 8.83111C15.6904 8.83111 15.7545 9.44612 15.7705 9.83481C15.7745 9.91693 15.7725 9.97102 15.7685 9.97102C15.7525 9.97102 15.4299 9.78072 15.1996 9.63649C14.9992 9.51027 14.6186 9.25783 14.5585 9.20975C14.5384 9.19574 14.5404 9.19374 14.7047 9.13763C14.9832 9.04346 15.6443 8.83111 15.6663 8.83111V8.83111ZM14.3161 9.27586C14.3341 9.27586 14.3802 9.30188 14.4904 9.37001C14.903 9.62844 15.464 9.94098 15.7044 10.0452C15.7785 10.0772 15.7865 10.0652 15.6162 10.1814C15.2516 10.4298 14.7968 10.6742 14.2399 10.9206C14.1418 10.9647 14.0596 10.9987 14.0576 10.9987C14.0536 10.9987 14.0656 10.9487 14.0816 10.8886C14.2159 10.3897 14.292 9.88487 14.296 9.48019C14.298 9.27984 14.298 9.27984 14.3161 9.27386C14.312 9.27586 14.314 9.27586 14.3161 9.27586V9.27586ZM14.0376 9.38203C14.0496 9.39403 14.0416 9.84281 14.0256 9.965C13.9895 10.2575 13.9334 10.5299 13.8413 10.8365C13.8193 10.9106 13.7992 10.9727 13.7952 10.9767C13.7872 10.9867 13.5127 10.7183 13.4226 10.6141C13.2663 10.4338 13.1441 10.2535 13.054 10.0772C13.0079 9.98703 12.9358 9.81076 12.9418 9.80473C12.9738 9.7827 14.0296 9.37403 14.0376 9.38203ZM12.7274 9.89689C12.7294 9.89689 12.7314 9.89689 12.7334 9.89888C12.7374 9.90289 12.7515 9.93496 12.7635 9.971C12.8276 10.1453 12.9718 10.4017 13.096 10.566C13.2323 10.7463 13.4106 10.9386 13.5588 11.0648C13.6069 11.1049 13.6509 11.143 13.6569 11.149C13.669 11.161 13.673 11.159 13.3464 11.2832C12.9678 11.4275 12.5551 11.5717 12.0823 11.7239C11.9694 11.7603 11.8565 11.7971 11.7438 11.8341C11.7257 11.8402 11.7317 11.8301 11.7838 11.748C12.0182 11.3814 12.3748 10.6622 12.5751 10.1533C12.6092 10.0652 12.6433 9.97703 12.6493 9.95699C12.6573 9.92892 12.6673 9.91892 12.6933 9.90489C12.7074 9.90091 12.7214 9.89689 12.7274 9.89689V9.89689ZM12.3268 10.0632C12.3328 10.0672 12.2306 10.2815 12.1304 10.4779C11.9361 10.8565 11.7237 11.2291 11.4392 11.6819C11.3912 11.76 11.3451 11.8322 11.3391 11.8402C11.3291 11.8542 11.3251 11.8502 11.293 11.7881C11.2249 11.6538 11.1688 11.4815 11.1387 11.3233C11.1087 11.167 11.1147 10.8946 11.1488 10.7263C11.1748 10.6021 11.1728 10.6041 11.2329 10.574C11.4893 10.4438 12.3187 10.0552 12.3268 10.0632V10.0632ZM15.7825 10.2034V10.2876C15.7825 10.7343 15.7345 11.3473 15.6643 11.7941C15.6523 11.8722 15.6422 11.9363 15.6403 11.9383C15.6403 11.9383 15.5822 11.9223 15.5141 11.9023C15.2136 11.8081 14.887 11.6699 14.5925 11.5076C14.3982 11.4014 14.1157 11.2271 14.1237 11.2191C14.1257 11.2171 14.2099 11.173 14.308 11.1209C14.7007 10.9166 15.0773 10.6962 15.4039 10.4779C15.5261 10.3957 15.7104 10.2635 15.7505 10.2275L15.7825 10.2034ZM10.8142 10.7964C10.8222 10.7964 10.8202 10.8124 10.8082 10.8845C10.8002 10.9366 10.7901 11.0328 10.7862 11.0989C10.7701 11.3914 10.8182 11.6078 10.9624 11.9042C11.0025 11.9864 11.0346 12.0545 11.0326 12.0565C11.0185 12.0685 9.69233 12.4572 9.2756 12.5714C9.1514 12.6054 9.04324 12.6355 9.03518 12.6375C9.02119 12.6415 9.01917 12.6395 9.02518 12.6054C9.07125 12.3109 9.29564 11.9263 9.60815 11.6017C9.81651 11.3854 9.9828 11.2592 10.2673 11.0969C10.4716 10.9807 10.7861 10.8064 10.8102 10.7984C10.8102 10.7964 10.8122 10.7964 10.8142 10.7964V10.7964ZM13.9394 11.3553C13.9414 11.3533 13.9895 11.3794 14.0476 11.4134C14.4763 11.6619 15.0733 11.8922 15.5822 12.0104L15.6283 12.0205L15.5641 12.0565C15.2977 12.2048 14.4222 12.5693 13.5267 12.9039C13.3965 12.952 13.2683 13.0001 13.2442 13.0101C13.2202 13.0201 13.1982 13.0261 13.1982 13.0241C13.1982 13.0221 13.2342 12.952 13.2803 12.8659C13.5307 12.3971 13.7831 11.8261 13.9114 11.4294C13.9274 11.3914 13.9374 11.3573 13.9394 11.3553V11.3553ZM13.6209 11.4595C13.6229 11.4616 13.6069 11.5036 13.5868 11.5517C13.4126 11.9744 13.1841 12.4352 12.8917 12.952C12.8176 13.0843 12.7554 13.1904 12.7534 13.1904C12.7514 13.1904 12.6913 13.1544 12.6192 13.1103C12.1945 12.8498 11.8179 12.5293 11.5715 12.2188L11.5354 12.1747L11.7177 12.1246C12.3708 11.9463 12.9257 11.754 13.4766 11.5176C13.5548 11.4856 13.6189 11.4595 13.6209 11.4595V11.4595ZM15.6002 12.1507C15.6002 12.1507 15.6022 12.1527 15.6002 12.1507C15.6022 12.1968 15.5 12.6095 15.4159 12.9079C15.3458 13.1583 15.2857 13.3547 15.1755 13.7012C15.1274 13.8535 15.0854 13.9797 15.0833 13.9797C15.0814 13.9797 15.0693 13.9777 15.0573 13.9737C14.4623 13.8655 13.9294 13.7153 13.4286 13.515C13.2883 13.4588 13.088 13.3687 13.076 13.3587C13.072 13.3546 13.1922 13.2986 13.3445 13.2325C14.256 12.8338 15.2016 12.381 15.5261 12.1867C15.5641 12.1627 15.5942 12.1507 15.6002 12.1507V12.1507ZM11.0306 12.3069C11.0346 12.3109 10.7801 12.6776 10.4235 13.1764C10.2993 13.3507 10.1551 13.555 10.101 13.6311C10.0469 13.7073 9.96478 13.8275 9.9187 13.8996L9.83452 14.0298L9.74437 13.9537C9.63818 13.8655 9.4539 13.6772 9.37176 13.5731C9.19946 13.3587 9.08329 13.1323 9.03721 12.926C9.01516 12.8298 9.01516 12.7817 9.03517 12.7757C9.06522 12.7677 9.60012 12.6415 10.101 12.5253C10.3795 12.4612 10.702 12.3851 10.8182 12.357C10.9344 12.329 11.0286 12.3069 11.0306 12.3069V12.3069ZM11.287 12.4051L11.3511 12.4772C11.6396 12.7998 11.9341 13.0382 12.2907 13.2465C12.3548 13.2826 12.4029 13.3146 12.3988 13.3167C12.3848 13.3267 11.1608 13.7614 10.5938 13.9577C10.2753 14.0699 10.0128 14.16 10.0109 14.16C10.0089 14.16 9.99083 14.148 9.97076 14.134L9.93472 14.1079L9.99281 14.0238C10.1811 13.7514 10.4175 13.4529 10.9324 12.8318L11.287 12.4051ZM12.8857 13.549C12.8877 13.547 12.9758 13.5791 13.084 13.6192C13.3445 13.7173 13.5508 13.7794 13.8273 13.8495C14.1678 13.9357 14.6606 14.0198 14.9511 14.0439C14.9952 14.0478 15.0193 14.0519 15.0112 14.0579C14.9972 14.0659 14.7027 14.1641 14.4864 14.2322C14.1418 14.3403 13.09 14.6509 12.2326 14.8973C12.0743 14.9434 11.9381 14.9814 11.9301 14.9834C11.9101 14.9875 11.8439 14.9694 11.8439 14.9614C11.8439 14.9574 11.892 14.8953 11.9501 14.8272C12.2386 14.4826 12.5251 14.098 12.7635 13.7333C12.8296 13.6331 12.8857 13.551 12.8857 13.549ZM12.5331 13.5591C12.5351 13.561 12.3928 13.7894 12.1444 14.1821C12.0382 14.3483 11.92 14.5367 11.878 14.6028C11.8379 14.6669 11.7778 14.7671 11.7438 14.8231L11.6856 14.9253L11.6556 14.9173C11.5835 14.8973 11.0766 14.719 10.9424 14.6649C10.7761 14.5988 10.6038 14.5186 10.4756 14.4505C10.3153 14.3644 10.115 14.2362 10.131 14.2322C10.135 14.2302 10.4095 14.156 10.74 14.0659C11.6175 13.8275 12.1043 13.6892 12.4229 13.5891C12.481 13.5711 12.5311 13.557 12.5331 13.5591ZM15.0273 14.144H15.0292C15.0373 14.1641 14.7127 15.0656 14.5945 15.35C14.5685 15.4141 14.5585 15.4302 14.5445 15.4281C14.5104 15.4262 14.0396 15.3601 13.7531 15.318C13.2543 15.2419 12.4169 15.0956 12.2065 15.0475L12.1585 15.0375L12.4569 14.9694C13.098 14.8251 13.4065 14.747 13.719 14.6508C14.1137 14.5306 14.5044 14.3804 14.899 14.1961C14.9611 14.168 15.0132 14.146 15.0273 14.144Z" fill="url(#paint0_linear_6_63)"/>
<path d="M13.5388 2.29812C13.4947 2.29214 12.7835 2.54857 12.3247 2.73486C11.7057 2.98731 11.2249 3.22773 10.9284 3.43604C10.8182 3.5142 10.68 3.65241 10.658 3.70649C10.6499 3.72653 10.6459 3.75057 10.6459 3.77461L10.9144 4.02904L11.5534 4.23338L13.074 4.50584L14.8129 4.80435L14.8309 4.6541C14.8249 4.6541 14.8209 4.6521 14.815 4.6521L14.5865 4.61603L14.5405 4.5339C14.3041 4.11719 14.0436 3.60032 13.8914 3.25173C13.7732 2.98127 13.661 2.66878 13.5989 2.44439C13.5648 2.30816 13.5608 2.30015 13.5388 2.29816V2.29811H13.5388V2.29812ZM13.5067 2.40032H13.5087C13.5107 2.4023 13.5187 2.45843 13.5268 2.52451C13.5608 2.80502 13.6229 3.07543 13.7211 3.36793C13.7952 3.58831 13.7952 3.5763 13.7091 3.55024C13.5047 3.49416 12.5892 3.33589 11.9261 3.24374C11.8199 3.22971 11.7297 3.21569 11.7297 3.2137C11.7217 3.20569 12.2085 2.95124 12.4229 2.8511C12.6974 2.72486 13.4506 2.41033 13.5067 2.40032V2.40032ZM11.5755 3.29782L11.6536 3.32384C12.0783 3.4681 13.1461 3.67245 13.7351 3.72053C13.8012 3.72654 13.8573 3.73256 13.8593 3.73256C13.8613 3.73456 13.8052 3.76461 13.7331 3.79865C13.4486 3.9409 13.1361 4.11519 12.9197 4.24943C12.8556 4.28947 12.7975 4.32155 12.7895 4.32155C12.7815 4.32155 12.7394 4.31353 12.6954 4.30752L12.6152 4.29548L12.4149 4.09914C12.0623 3.75658 11.7858 3.49215 11.6797 3.39196L11.5755 3.29782V3.29782ZM11.4953 3.35991L11.7778 3.71252C11.9321 3.90684 12.0883 4.09715 12.1224 4.1392C12.1564 4.1813 12.1845 4.21537 12.1825 4.21737C12.1745 4.22337 11.7738 4.14523 11.5615 4.09717C11.3431 4.04707 11.2529 4.02303 11.1187 3.98098L11.0085 3.94491V3.91684C11.0105 3.78261 11.1808 3.58229 11.4693 3.37796L11.4953 3.35991ZM13.8954 3.84073C13.9034 3.84073 13.9134 3.85875 13.9374 3.91284C14.0055 4.06308 14.2179 4.46778 14.27 4.5459C14.286 4.57197 14.314 4.57397 14.0316 4.52789C13.3525 4.41767 13.1341 4.38165 13.1341 4.37764C13.1341 4.37565 13.1541 4.36162 13.1802 4.34758C13.3905 4.23141 13.6029 4.08315 13.7912 3.92488C13.8373 3.88681 13.8794 3.85075 13.8873 3.84473C13.8893 3.84073 13.8934 3.83873 13.8954 3.84073Z" fill="url(#paint1_linear_6_63)"/>
<path d="M10.6719 3.67845C10.6719 3.67845 10.6279 3.7486 10.67 3.85278C10.696 3.91686 10.7721 3.99498 10.8583 4.07513C10.8583 4.07513 11.7498 4.94458 11.8579 5.06881C12.3508 5.63775 12.5651 6.19869 12.5852 6.972C12.5972 7.46883 12.503 7.90556 12.2686 8.41242C11.8519 9.32195 10.9724 10.3256 9.61617 11.4395L9.81453 11.3734C9.94274 11.2772 10.117 11.1751 10.5257 10.9507C11.4693 10.4338 12.5311 9.95901 13.8333 9.47019C15.7084 8.76499 18.7916 7.93959 20.5465 7.67117L20.7288 7.6431L20.7008 7.59903C20.5405 7.3506 20.4303 7.19636 20.2981 7.03209C19.9134 6.55528 19.4467 6.16865 18.8757 5.8481C18.0904 5.40939 17.0746 5.06681 15.7885 4.81238C15.5461 4.76428 15.0132 4.67214 14.5805 4.60603C13.6629 4.46382 13.07 4.36564 12.4169 4.25345C12.1825 4.21337 11.8319 4.15328 11.5995 4.10321C11.4793 4.07714 11.2489 4.02306 11.0686 3.96096C10.9244 3.90483 10.716 3.84874 10.6719 3.67845V3.67845ZM11.1888 4.17931C11.1908 4.17734 11.2229 4.18932 11.265 4.20335C11.3411 4.22937 11.4392 4.25943 11.5555 4.2915C11.6434 4.31569 11.7315 4.33906 11.8199 4.36161C11.9401 4.39164 12.0403 4.4197 12.0423 4.4197C12.0563 4.43373 12.2586 5.08077 12.3268 5.3292C12.3528 5.42338 12.3728 5.5035 12.3708 5.5035C12.3688 5.50553 12.3468 5.47145 12.3207 5.42538C12.0863 5.01268 11.7157 4.59398 11.287 4.2574C11.2309 4.21737 11.1888 4.18131 11.1888 4.17931ZM12.1745 4.45177C12.1845 4.45177 12.2286 4.45778 12.2826 4.46979C12.6232 4.54591 13.2343 4.66211 13.6249 4.72823C13.691 4.73824 13.7431 4.75028 13.7431 4.75426C13.7431 4.75829 13.7191 4.77229 13.689 4.78834C13.6229 4.82238 13.3564 4.98063 13.2683 5.04074C13.0459 5.18899 12.8456 5.34925 12.7014 5.49349C12.6433 5.5516 12.5932 5.59968 12.5932 5.59968C12.5932 5.59968 12.5812 5.56563 12.5711 5.52353C12.499 5.24507 12.3488 4.83237 12.2125 4.5419C12.1905 4.49583 12.1725 4.45375 12.1725 4.44976C12.1725 4.45376 12.1725 4.45177 12.1745 4.45177V4.45177ZM13.9094 4.78232C13.9214 4.78631 13.9414 4.85444 13.9815 5.00468C14.0556 5.29518 14.0897 5.61972 14.0777 5.92223C14.0737 6.00637 14.0697 6.08449 14.0656 6.09453L14.0596 6.11454L13.9555 6.0805C13.7411 6.01239 13.3925 5.91019 13.094 5.82607C12.9237 5.77999 12.7855 5.73792 12.7855 5.73392C12.7855 5.72188 13.034 5.47347 13.1401 5.37933C13.3424 5.201 13.8913 4.7763 13.9094 4.78232V4.78232ZM14.0476 4.80233C14.0536 4.79635 14.877 4.93856 15.2516 5.01069C15.5301 5.06477 15.9348 5.14892 15.9588 5.15896C15.9708 5.16295 15.9288 5.18698 15.7945 5.24708C15.2657 5.4855 14.873 5.69983 14.4824 5.96029C14.3802 6.02841 14.294 6.08449 14.292 6.08449C14.29 6.08449 14.288 6.02641 14.288 5.95628C14.288 5.57566 14.2119 5.191 14.0716 4.86646C14.0576 4.83441 14.0456 4.80436 14.0476 4.80233V4.80233ZM16.1772 5.22306C16.1832 5.22907 16.1571 5.39135 16.1331 5.4875C16.061 5.786 15.8667 6.22877 15.6283 6.64545C15.5862 6.71957 15.5481 6.77968 15.5441 6.78167C15.5401 6.78367 15.486 6.75361 15.4239 6.71755C15.1915 6.58132 14.9271 6.45312 14.6386 6.3329C14.5585 6.29885 14.4884 6.27079 14.4864 6.26682C14.4723 6.25478 15.1174 5.82806 15.458 5.62372C15.7284 5.45946 16.1692 5.21503 16.1772 5.22306V5.22306ZM16.3294 5.24709C16.3475 5.24709 16.7121 5.34727 16.9024 5.40336C17.3732 5.54361 17.9141 5.74193 18.2667 5.90219L18.4129 5.96833L18.3108 5.99235C17.4493 6.19067 16.7121 6.41908 16.0009 6.70756C15.9428 6.73159 15.8907 6.75163 15.8867 6.75163C15.8827 6.75163 15.9027 6.70556 15.9288 6.64945C16.1431 6.19469 16.2814 5.71989 16.3154 5.31519C16.3174 5.27712 16.3234 5.24709 16.3294 5.24709V5.24709ZM12.6994 6.0805C12.7054 6.07448 12.9838 6.1406 13.1341 6.18264C13.3625 6.24677 13.8473 6.40902 13.8473 6.42106C13.8473 6.42305 13.7932 6.46913 13.7291 6.52525C13.4667 6.74361 13.2142 6.97397 12.9117 7.26647C12.8215 7.35264 12.7454 7.42275 12.7414 7.42275C12.7374 7.42275 12.7355 7.41071 12.7374 7.39469C12.7835 7.05811 12.7735 6.6254 12.7094 6.18667C12.7034 6.13055 12.6974 6.0825 12.6994 6.0805V6.0805ZM18.5512 6.08652C18.5551 6.09051 18.4229 6.29886 18.3388 6.41704C18.2186 6.58932 18.0423 6.81775 17.6436 7.31858C17.4333 7.583 17.1969 7.88153 17.1188 7.98169C17.0386 8.08185 16.9725 8.16597 16.9705 8.16597C16.9685 8.16597 16.9425 8.12993 16.9144 8.08587C16.69 7.74929 16.4216 7.45479 16.103 7.19036C16.0429 7.14026 15.9769 7.08617 15.9548 7.07014C15.9328 7.05412 15.9147 7.03809 15.9147 7.0361C15.9147 7.0301 16.2553 6.88382 16.5138 6.77967C16.9665 6.59535 17.5835 6.37499 18.0463 6.23274C18.2887 6.15662 18.5472 6.0825 18.5512 6.08652V6.08652ZM18.7054 6.12656C18.7134 6.12458 18.7615 6.14861 18.8196 6.18264C19.3064 6.46111 19.7832 6.81973 20.1599 7.18835C20.266 7.29254 20.5285 7.565 20.5245 7.56699C20.5245 7.56699 20.4323 7.575 20.3241 7.583C19.4807 7.64713 18.4009 7.8254 17.3632 8.07582C17.2931 8.09183 17.231 8.10586 17.227 8.10586C17.223 8.10586 17.3011 8.02774 17.3993 7.93359C18.0083 7.34661 18.2868 6.97599 18.6153 6.31487C18.6614 6.21673 18.7014 6.13259 18.7054 6.12656C18.7034 6.12656 18.7034 6.12656 18.7054 6.12656V6.12656ZM14.2439 6.58336C14.272 6.58933 14.5324 6.71158 14.7288 6.80972C14.9091 6.89984 15.1795 7.04411 15.1935 7.05612C15.1955 7.05811 15.0994 7.1082 14.9812 7.16631C14.6046 7.35462 14.282 7.5329 13.9454 7.73725C13.8493 7.79536 13.7692 7.84346 13.7672 7.84346C13.7591 7.84346 13.7611 7.83541 13.8152 7.73725C13.9956 7.40873 14.1398 7.01607 14.2219 6.63341C14.2299 6.60337 14.2379 6.58336 14.2439 6.58336V6.58336ZM13.9835 6.63141C13.9895 6.63744 13.9214 6.88383 13.8794 7.01806C13.7972 7.27249 13.659 7.59102 13.5248 7.83143C13.4927 7.88749 13.4446 7.96964 13.4186 8.01571L13.3685 8.09584L13.2563 7.98769C13.1261 7.86147 13.0199 7.78334 12.8837 7.7132C12.8296 7.68519 12.7875 7.66112 12.7875 7.65714C12.7875 7.64111 13.1301 7.33059 13.3925 7.10621C13.5808 6.94393 13.9775 6.62541 13.9835 6.63141V6.63141ZM15.5762 7.28653L15.6744 7.35061C15.8987 7.49688 16.1631 7.69119 16.3655 7.86147C16.4797 7.95561 16.7 8.15397 16.7442 8.20205L16.7682 8.22812L16.6059 8.27418C15.6884 8.52858 14.9792 8.75497 14.1518 9.0595C14.0596 9.09354 13.9815 9.12159 13.9755 9.12159C13.9635 9.12159 13.9534 9.13159 14.1598 8.94126C14.6887 8.45449 15.1575 7.91755 15.5061 7.39468L15.5762 7.28653V7.28653ZM15.1575 7.3907C15.1615 7.39469 14.887 7.78133 14.7227 7.9997C14.5264 8.26015 14.1778 8.69687 13.9374 8.98132C13.8373 9.09954 13.7512 9.1977 13.7471 9.19971C13.7411 9.20171 13.7391 9.17167 13.7391 9.12559C13.7391 8.88316 13.677 8.62472 13.5688 8.40437C13.5227 8.31222 13.5147 8.29018 13.5248 8.28017C13.5628 8.2461 14.1458 7.91355 14.5144 7.71523C14.7628 7.58301 15.1514 7.38669 15.1575 7.3907V7.3907ZM12.6252 8.01174C12.6312 8.01174 12.6773 8.03576 12.7294 8.06382C12.8576 8.13393 12.9718 8.21206 13.074 8.29622C13.078 8.30021 13.0259 8.3423 12.9578 8.39235C12.7675 8.52858 12.479 8.74697 12.3107 8.8812C12.1344 9.02143 12.1284 9.02543 12.1484 8.99539C12.2807 8.79305 12.3468 8.67885 12.4169 8.53262C12.479 8.40242 12.5411 8.24815 12.5852 8.11391C12.6012 8.05581 12.6212 8.01174 12.6252 8.01174ZM13.3004 8.54061C13.3104 8.53863 13.3224 8.55664 13.3765 8.63679C13.4907 8.80704 13.5788 9.03546 13.6009 9.21976L13.6049 9.25985L13.3304 9.36603C12.8396 9.55633 12.3869 9.74466 12.0803 9.88487C11.9942 9.92495 11.8439 9.99706 11.7458 10.0452C11.6476 10.0952 11.5675 10.1333 11.5675 10.1313C11.5675 10.1293 11.6296 10.0832 11.7057 10.0271C12.3047 9.5924 12.8236 9.11558 13.2122 8.63879C13.2543 8.5887 13.2924 8.54261 13.2964 8.54062L13.3004 8.54061V8.54061ZM12.9899 8.61675C12.9979 8.62476 12.7695 8.88318 12.6132 9.04144C12.2266 9.43613 11.8439 9.74466 11.3691 10.0452C11.309 10.0832 11.255 10.1173 11.2489 10.1213C11.2349 10.1293 11.2529 10.1093 11.4613 9.88287C11.5935 9.74063 11.6937 9.62043 11.8079 9.47221C11.884 9.37406 11.898 9.36003 12.0082 9.28186C12.3027 9.0695 12.9818 8.60872 12.9899 8.61675Z" fill="url(#paint2_radial_6_63)"/>
<path d="M4.31465 16.912C4.2777 16.912 4.24073 16.9156 4.2041 16.9156C3.45765 16.9553 2.95421 17.2838 2.65985 17.9254C2.4081 18.5056 2.43558 19.264 2.66268 19.8477C2.92675 20.4181 3.35347 20.7191 4.06572 20.8328C4.21642 20.8575 4.31748 20.9402 4.60935 21.281L4.96849 21.7018H5.61984L5.18673 21.2652C4.94732 21.0258 4.75367 20.8173 4.75367 20.799C4.75367 20.7807 4.84526 20.7406 4.95612 20.7068C5.32159 20.5962 5.62509 20.3138 5.83739 19.8811C6.00921 19.5336 6.03388 19.4262 6.05851 18.9939C6.12295 17.707 5.44446 16.9025 4.31462 16.9117L4.31465 16.912V16.912ZM4.88572 20.2773C4.56884 20.4307 4.10872 20.4614 3.80837 20.3512C3.49782 20.2371 3.19715 19.9146 3.06192 19.5495C2.91159 19.1503 2.93305 18.4137 3.10488 18.082C3.38126 17.5539 3.74675 17.311 4.28085 17.311C5.07303 17.311 5.52369 17.7962 5.5825 18.708C5.62899 19.4693 5.37406 20.0403 4.88606 20.2769L4.88572 20.2773V20.2773ZM16.1376 18.0113C15.8644 18.0113 15.6553 18.1218 15.5144 18.3397L15.4039 18.5123V18.0637H14.931V20.7536H15.4036V19.8938C15.4036 19.1076 15.4134 19.0157 15.5232 18.8006C15.6747 18.5056 15.9352 18.3584 16.1869 18.4288L16.3559 18.4781V18.012H16.1376V18.0113V18.0113ZM13.3597 17.9866C13.2671 17.9866 13.1688 17.9989 13.071 18.0204C12.4383 18.1859 12.0816 18.7915 12.1034 19.4147C12.1034 19.9365 12.2048 20.1973 12.4566 20.4709C12.9724 20.8941 13.4389 20.9279 14.0684 20.7008C14.1758 20.6551 14.2927 20.6022 14.2927 20.6022V20.1791L14.0684 20.2952C13.559 20.517 13.1752 20.517 12.8678 20.2558C12.6717 20.0562 12.5854 19.8167 12.5457 19.5436H14.4522V19.1809C14.4522 18.4415 14.0072 17.9746 13.3593 17.9866H13.3597ZM12.5886 19.1661C12.5886 19.1661 12.6591 18.7049 12.9203 18.5239C13.046 18.4351 13.1903 18.3922 13.3315 18.3922C13.4731 18.3922 13.6142 18.438 13.7308 18.5271C13.9702 18.7112 14.0104 19.1626 14.0104 19.1626H12.5886V19.1661H12.5886ZM1.18918 18.6809C0.676565 18.3704 0.449116 18.1464 0.476928 17.8824C0.556484 17.1518 1.45925 17.2529 1.95919 17.5293L1.96274 17.0378C1.96274 17.0378 1.68634 16.9181 1.29024 16.9117C0.68254 16.9025 0.289614 17.1018 0.105498 17.5074C-0.164928 18.106 0.0745199 18.5573 0.939961 19.0608C1.42582 19.3435 1.64057 19.5889 1.64057 19.8565C1.64057 20.4093 0.974089 20.6022 0.28648 20.2554C0.144968 20.185 0.0252437 20.1262 0.0189117 20.1262C-0.00575069 20.2829 0.00696206 20.6579 0.00696206 20.6579C0.00696206 20.6579 0.218224 20.7466 0.535069 20.8078C1.32089 20.9645 2.036 20.5959 2.10359 19.9973C2.1624 19.4354 1.95921 19.1407 1.18922 18.6805L1.18918 18.6809V18.6809ZM20.3225 17.9803C20.2303 17.9803 20.1324 17.9929 20.0303 18.0144C19.3983 18.1799 19.0423 18.7855 19.0666 19.4087C19.0666 19.9298 19.1677 20.1882 19.4194 20.4614C19.9352 20.885 20.4017 20.9191 21.0344 20.6917C21.1414 20.6459 21.258 20.5939 21.258 20.5939V20.17L21.0341 20.2868C20.5236 20.5079 20.1398 20.5079 19.8335 20.2467C19.6363 20.0474 19.5507 19.8108 19.511 19.5344H21.4143V19.1717C21.4143 18.4359 20.9693 17.9687 20.3214 17.981L20.3225 17.9803V17.9803ZM19.5514 19.1597C19.5514 19.1597 19.6226 18.6992 19.8834 18.5147C20.0088 18.4257 20.1531 18.3827 20.2943 18.3827C20.4351 18.3827 20.5771 18.4284 20.6936 18.5179C20.933 18.702 20.9732 19.1566 20.9732 19.1566H19.5518L19.5514 19.1597V19.1597ZM10.8845 18.6869C10.3719 18.3771 10.1451 18.1524 10.1726 17.8883C10.2522 17.1574 11.155 17.2588 11.6549 17.5352L11.6584 17.0437C11.6584 17.0437 11.382 16.924 10.9859 16.9184C10.3782 16.9092 9.9853 17.1085 9.80085 17.5141C9.53079 18.1126 9.77337 18.564 10.636 19.0675C11.1212 19.3499 11.3359 19.5921 11.3359 19.8597C11.3359 20.4125 10.6698 20.6086 9.98215 20.2586C9.84132 20.1882 9.72163 20.1301 9.71458 20.1301C9.68992 20.2867 9.70263 20.6617 9.70263 20.6617C9.70263 20.6617 9.9114 20.7473 10.2272 20.8117C11.0138 20.9687 11.7292 20.6004 11.7965 20.0019C11.8549 19.4428 11.6521 19.1481 10.8845 18.6876V18.6869H10.8845ZM23.1008 18.0049C22.8276 18.0049 22.616 18.1158 22.4776 18.3338L22.367 18.5056V18.0577H21.8942V20.7469H22.3667V19.8872C22.3667 19.1013 22.3762 19.0091 22.4864 18.7943C22.6378 18.4996 22.8983 18.3521 23.1501 18.4228L23.3191 18.4721V18.0049H23.1008V18.0049ZM7.12428 18.6714V16.9581H6.64758V20.7529H8.65236V20.3048H7.1243V18.6714H7.12428ZM18.1487 19.2055L17.7558 20.228L17.378 19.1999L16.9942 18.0605H16.5063C16.8225 18.957 17.1664 19.8688 17.5132 20.7529C17.6636 20.7564 17.8142 20.7529 17.9646 20.7529L18.4952 19.4206L19.0356 18.0609H18.5691C18.5691 18.0609 18.3631 18.601 18.1484 19.2059L18.1487 19.2055V19.2055ZM8.22278 15.9241C8.29954 15.9241 8.36361 15.8995 8.41642 15.8466C8.46851 15.7945 8.49598 15.7332 8.49598 15.6565C8.49598 15.5797 8.46851 15.5157 8.41642 15.4664C8.36361 15.4171 8.30269 15.3924 8.22628 15.3924C8.14885 15.3924 8.08475 15.4171 8.03264 15.4692C7.97984 15.5213 7.95589 15.5854 7.95589 15.6593C7.95589 15.7368 7.98055 15.8008 8.03264 15.8495C8.08194 15.8987 8.14603 15.9234 8.22278 15.9234V15.9241V15.9241ZM8.05379 15.4875C8.09954 15.4417 8.15519 15.4206 8.2263 15.4206C8.29321 15.4206 8.34885 15.4417 8.39533 15.4875C8.4411 15.5333 8.46575 15.5889 8.46575 15.6565C8.46575 15.7241 8.4411 15.7826 8.39533 15.8283C8.34886 15.874 8.29321 15.8959 8.2263 15.8959C8.15835 15.8959 8.10307 15.8748 8.05732 15.8283C8.01155 15.7826 7.9869 15.7241 7.9869 15.6565C7.9869 15.5889 8.00802 15.5333 8.05379 15.4875ZM8.16749 15.6812H8.19847C8.22032 15.6812 8.24179 15.7023 8.26009 15.7424L8.29709 15.8255H8.35516L8.30941 15.7332C8.29076 15.6963 8.27246 15.6748 8.25096 15.6688C8.27808 15.6624 8.29954 15.6533 8.31504 15.635C8.3305 15.6192 8.33615 15.5977 8.33615 15.5734C8.33615 15.5452 8.32735 15.5241 8.30871 15.5086C8.28757 15.491 8.25377 15.4815 8.2101 15.4815H8.11226V15.8255H8.16153V15.6811L8.16749 15.6812V15.6812ZM8.16749 15.5213H8.21047C8.24145 15.5213 8.26328 15.5276 8.27525 15.5368C8.28688 15.5459 8.29004 15.5579 8.29004 15.5797C8.29004 15.6195 8.26536 15.6382 8.21963 15.6382H8.16683V15.5213H8.16749V15.5213ZM0.292764 15.6505C0.292764 15.5308 0.289257 15.4417 0.286431 15.3893H0.289257C0.301563 15.4512 0.316712 15.4974 0.329035 15.528L0.786726 16.5504H0.86349L1.32118 15.5188C1.33354 15.4907 1.34586 15.4484 1.36099 15.3896H1.3645C1.35536 15.4917 1.35219 15.5805 1.35219 15.6512V16.5536H1.50884V15.2122H1.31238L0.891659 16.1452C0.876154 16.1821 0.854674 16.2375 0.827219 16.3107H0.820854C0.811713 16.2744 0.790233 16.2191 0.759612 16.1515L0.348355 15.209H0.139594V16.5504H0.290279V15.6512L0.292764 15.6505V15.6505ZM1.85215 15.653H1.98737V16.4885H1.85215V15.653V15.653ZM1.91975 15.3467C1.94794 15.3467 1.97187 15.3371 1.99017 15.3185C2.00884 15.3002 2.02118 15.2763 2.02118 15.2481C2.02118 15.2206 2.012 15.196 1.99054 15.1777C1.97153 15.159 1.94722 15.1495 1.91941 15.1495C1.89197 15.1495 1.86733 15.159 1.84898 15.1777C1.83037 15.196 1.81802 15.2206 1.81802 15.2481C1.81802 15.2787 1.82753 15.3002 1.84898 15.3185C1.87015 15.3371 1.89196 15.3467 1.91941 15.3467H1.91975ZM2.95138 16.5068V16.3596C2.87743 16.4149 2.79786 16.4424 2.71548 16.4424C2.61692 16.4424 2.53696 16.4086 2.47851 16.3438C2.42044 16.2798 2.38946 16.1906 2.38946 16.0797C2.38946 15.9636 2.42044 15.8713 2.4845 15.8009C2.54612 15.7333 2.62606 15.6995 2.72395 15.6995C2.80386 15.6995 2.88058 15.7241 2.9514 15.7734V15.6168C2.88698 15.583 2.81339 15.5675 2.73028 15.5675C2.57676 15.5675 2.45708 15.6168 2.36765 15.7119C2.27891 15.8069 2.23314 15.9361 2.23314 16.0921C2.23314 16.2308 2.27292 16.3474 2.35569 16.4365C2.44193 16.528 2.55217 16.5745 2.68736 16.5745C2.79188 16.5716 2.87743 16.5497 2.95138 16.5068V16.5068ZM3.3383 16.0614C3.3383 15.9512 3.36295 15.8621 3.40872 15.8008C3.4517 15.7456 3.50378 15.7178 3.5654 15.7178C3.61751 15.7178 3.65447 15.7273 3.68156 15.7488V15.5889C3.66046 15.5798 3.62982 15.5766 3.59004 15.5766C3.53476 15.5766 3.4855 15.5952 3.44218 15.6294C3.39641 15.6656 3.3598 15.7209 3.33832 15.7914H3.33481V15.5952H3.18166V16.5529H3.33515V16.0614H3.3383V16.0614ZM4.21957 16.5719C4.36394 16.5719 4.48013 16.5254 4.56637 16.4332C4.65226 16.3416 4.69522 16.2184 4.69522 16.0649C4.69522 15.9083 4.65582 15.7885 4.57553 15.6994C4.49598 15.6104 4.38539 15.5674 4.24102 15.5674C4.09665 15.5674 3.98047 15.6104 3.89422 15.6934C3.80199 15.785 3.75339 15.9142 3.75339 16.0801C3.75339 16.2244 3.79283 16.3441 3.87594 16.4332C3.96183 16.5254 4.07556 16.5716 4.21957 16.5716V16.5719V16.5719ZM4.00128 15.7917C4.05973 15.7301 4.13651 15.6994 4.23154 15.6994C4.33016 15.6994 4.40408 15.7301 4.45901 15.7917C4.51427 15.8561 4.54176 15.9481 4.54176 16.0709C4.54176 16.1878 4.5171 16.2797 4.46498 16.3413C4.4129 16.4057 4.33613 16.4399 4.23471 16.4399C4.13614 16.4399 4.05973 16.4057 4.00128 16.3413C3.94321 16.2765 3.91538 16.1878 3.91538 16.0709C3.9094 15.9547 3.94004 15.8597 4.00128 15.7917ZM5.36739 16.4885C5.42582 16.4364 5.45684 16.3723 5.45684 16.292C5.45684 16.2216 5.43216 16.1631 5.3864 16.117C5.34906 16.0801 5.29136 16.0466 5.20791 16.0128C5.13393 15.9819 5.08818 15.9544 5.06352 15.9329C5.03889 15.9082 5.02374 15.8776 5.02374 15.8343C5.02374 15.7945 5.03925 15.7639 5.06954 15.7392C5.10052 15.7146 5.13996 15.7027 5.19277 15.7027C5.27551 15.7027 5.34627 15.7245 5.41103 15.7706V15.6171C5.34908 15.5861 5.28183 15.5713 5.20506 15.5713C5.1065 15.5713 5.0234 15.5985 4.96211 15.6509C4.89767 15.703 4.86706 15.7706 4.86706 15.8502C4.86706 15.9206 4.88817 15.979 4.92829 16.022C4.96209 16.0586 5.01988 16.0959 5.10012 16.1294C5.1769 16.1632 5.229 16.1938 5.25679 16.2184C5.28425 16.2431 5.29657 16.2737 5.29657 16.31C5.29657 16.3994 5.23533 16.4456 5.1156 16.4456C5.02335 16.4456 4.94065 16.4153 4.86666 16.354V16.5194C4.93357 16.5596 5.01385 16.5779 5.10257 16.5779C5.2163 16.5719 5.30535 16.5441 5.36663 16.4888L5.36739 16.4885V16.4885ZM6.09832 15.5674C5.95393 15.5674 5.83776 15.6104 5.7515 15.6935C5.65996 15.7851 5.61067 15.9143 5.61067 16.0801C5.61067 16.2245 5.65048 16.3442 5.7332 16.4332C5.81947 16.5255 5.93282 16.5716 6.07719 16.5716C6.22506 16.5716 6.33775 16.5251 6.42399 16.4329C6.51026 16.3413 6.5532 16.2181 6.5532 16.0646C6.5532 15.9079 6.51307 15.7882 6.43348 15.6991C6.35043 15.61 6.23983 15.5671 6.099 15.5671L6.09832 15.5674V15.5674ZM6.39617 16.0709C6.39617 16.1878 6.37152 16.2797 6.31942 16.3413C6.2673 16.4058 6.19054 16.4399 6.08913 16.4399C5.99051 16.4399 5.91414 16.4057 5.85567 16.3413C5.7976 16.2765 5.76978 16.1878 5.76978 16.0709C5.76978 15.9477 5.80044 15.8526 5.86205 15.7885C5.92011 15.7273 5.99691 15.6963 6.09231 15.6963C6.18736 15.6963 6.26378 15.7272 6.31903 15.7885C6.36834 15.8561 6.39581 15.948 6.39581 16.0709H6.39617V16.0709ZM6.81095 16.5501H6.9641V15.721H7.18837V15.5921H6.96408V15.4442C6.96408 15.3097 7.01617 15.2421 7.12393 15.2421C7.1602 15.2421 7.19717 15.2513 7.22464 15.2668V15.1284C7.19717 15.1161 7.1602 15.1133 7.11404 15.1133C7.03132 15.1133 6.96373 15.138 6.90843 15.19C6.84399 15.2513 6.80986 15.3309 6.80986 15.4386V15.5957H6.64786V15.7245H6.80986V16.5506L6.81095 16.5501V16.5501ZM7.44009 16.2888C7.44009 16.4762 7.52286 16.5716 7.69184 16.5716C7.75312 16.5716 7.79923 16.5617 7.8362 16.5399V16.4082C7.80804 16.4294 7.77458 16.4392 7.73763 16.4392C7.68554 16.4392 7.64892 16.4269 7.62742 16.3991C7.60558 16.3716 7.59328 16.3251 7.59328 16.261V15.7206H7.83618V15.5917H7.59328V15.3094C7.54046 15.3277 7.48872 15.3432 7.43975 15.3586V15.5917H7.27427V15.7206H7.43975V16.2885L7.44009 16.2888V16.2888ZM23.9176 18.0542C23.8655 18.0049 23.8039 17.9803 23.7275 17.9803C23.6501 17.9803 23.586 18.0049 23.5339 18.0577C23.4818 18.1095 23.4571 18.1739 23.4571 18.2479C23.4571 18.3246 23.4818 18.3887 23.5335 18.438C23.5856 18.4873 23.6497 18.5119 23.7271 18.5119C23.8035 18.5119 23.868 18.4873 23.9208 18.4352C23.9726 18.3823 24 18.3214 24 18.245C23.9972 18.1676 23.9694 18.1035 23.9173 18.0542L23.9176 18.0542V18.0542ZM23.893 18.4169C23.8472 18.4626 23.7916 18.4837 23.724 18.4837C23.6571 18.4837 23.6015 18.4626 23.555 18.4169C23.5092 18.3704 23.4846 18.3123 23.4846 18.2443C23.4846 18.1774 23.5057 18.1218 23.5522 18.0753C23.5979 18.0296 23.6532 18.0084 23.724 18.0084C23.7909 18.0084 23.8465 18.0296 23.893 18.0753C23.9388 18.1218 23.9634 18.1774 23.9634 18.2443C23.9634 18.3155 23.9423 18.3704 23.893 18.4169V18.4169ZM23.755 18.2602C23.7824 18.2538 23.8043 18.2415 23.8194 18.2264C23.8349 18.2105 23.8406 18.189 23.8406 18.1644C23.8406 18.137 23.8317 18.1151 23.8131 18.1C23.792 18.0824 23.7578 18.0729 23.7146 18.0729H23.6167V18.4165H23.666V18.2721H23.6966C23.7177 18.2721 23.7389 18.2932 23.7578 18.3334L23.7944 18.4161H23.8529L23.8072 18.3239C23.7913 18.2837 23.773 18.2654 23.7544 18.2594L23.755 18.2602V18.2602ZM23.7212 18.2292H23.6684V18.113H23.7117C23.7423 18.113 23.7638 18.1186 23.7761 18.1282C23.7884 18.1373 23.7912 18.1493 23.7912 18.1711C23.7912 18.2109 23.7666 18.2292 23.7209 18.2292L23.7212 18.2292ZM15.1553 15.5523H15.1983V15.2083H15.312V15.1653H15.0416V15.2083H15.1554V15.5523H15.1553V15.5523ZM15.4159 15.2939C15.4159 15.2604 15.4159 15.2329 15.4134 15.2175C15.4162 15.2358 15.4226 15.2481 15.4254 15.2573L15.5574 15.5523H15.5786L15.7109 15.2544C15.7145 15.2453 15.7173 15.2333 15.7232 15.2175C15.7204 15.2481 15.7204 15.2727 15.7204 15.2914V15.552H15.7662V15.1653H15.7109L15.5912 15.4322C15.5884 15.4418 15.5789 15.4604 15.5729 15.4815H15.5694C15.5669 15.4692 15.5606 15.4569 15.5518 15.4358L15.4321 15.1654H15.3701V15.5527H15.4134V15.2942L15.4159 15.2939V15.2939Z" fill="#231F1F"/>
</g>
<defs>
<linearGradient id="paint0_linear_6_63" x1="10.631" y1="14.2237" x2="11.5894" y2="13.6574" gradientUnits="userSpaceOnUse">
<stop stop-color="#909CA9"/>
<stop offset="1" stop-color="#EDEDEE"/>
</linearGradient>
<linearGradient id="paint1_linear_6_63" x1="10.6529" y1="3.54732" x2="11.4241" y2="3.54732" gradientUnits="userSpaceOnUse">
<stop stop-color="#939FAB"/>
<stop offset="1" stop-color="#DCDEE1"/>
</linearGradient>
<radialGradient id="paint2_radial_6_63" cx="0" cy="0" r="1" gradientUnits="userSpaceOnUse" gradientTransform="translate(14.5442 7.08408) rotate(-171.457) scale(0.994232 1.98896)">
<stop stop-color="#EE352C"/>
<stop offset="1" stop-color="#A91D22"/>
</radialGradient>
<clipPath id="clip0_6_63">
<rect width="24" height="24" fill="white"/>
</clipPath>
</defs>
</svg>
